<?xml version="1.0" encoding="utf-8"?>
<!-- Generator: Adobe Illustrator 21.1.0, SVG Export Plug-In . SVG Version: 6.00 Build 0)  -->
<svg version="1.1" id="Layer_1" xmlns="http://www.w3.org/2000/svg" xmlns:xlink="http://www.w3.org/1999/xlink" x="0px" y="0px"
	 viewBox="0 0 612 792" style="enable-background:new 0 0 612 792;" xml:space="preserve">
<style type="text/css">
	.st0{fill:#EF4136;}
	.st1{fill:#0C0C0C;}
</style>
<path class="st0" d="M281.5,395.1L69.9,396c0-0.3,0-0.6,0-0.9c0-116.1,95.5-211.6,211.6-211.6c116.1,0,211.6,95.5,211.6,211.5
	L281.5,395.1z"/>
<g>
	<path id="XMLID_1_" class="st1" d="M491.7,376.6l-1.5,0.2l-1.9-1.5l-2.8,0.1l-0.4,1.4l-1.4-0.8h-3.6l-1.2,1.1l-5.3-0.3l-0.1-8
		l-1.2-0.9l-2.8,0.4l-0.3,4.9l-12,0.3l-0.3-2.6l-0.3,2.6h-0.8l-0.3-4.2l-2.3-0.6l-1.9,0.8l-0.3,6.1H450l0.2,0.8l-0.8-0.1l-0.1-1.1
		l-1.4,0.3l-0.4,4.2l-3.3,0.4v-2.3l-3.9-0.1v-2.6h-0.4v2.6l-10.4,0.6l-0.6,6l-1.1-0.4l-0.1-1.4h-1.7l-0.6-0.8h-2.8l-0.3,0.4
		l-0.9,0.3l-1.5-1.4l-2.8,1.9l-2.3-0.1v-8.1l-3.6-0.3l-0.1-0.5h-8.5l-0.3-12.7h-3.3l-0.1-7.8l-4.7-0.1v-3.5l-2-3.6h-2.3l-1.7,3.2
		H388v-2.7l-2.4,0.1l-0.4,1.5h-1.2v-1.7h-8.8l-0.2,1l-6.1,0.1l-0.3,0.5l-4.1,0.1v6H362l-0.3-1.6l-0.7-0.3l-0.2-3.7l-0.4-0.3
		l-0.3-1.7l-2-0.6l-0.3-2.5l-1.5-0.4h-7.6l-0.1,1.7l-4.4,5.3v1.5h-0.7l-0.1,12.2l-1.3,0.6l-5-0.1v7.2l-0.6,8l-0.5-0.1l-0.3-20
		l-3.6-0.1l-0.1-4.2l-2.8,0.1l-0.4,1.7l-1.1,0.3v-3l-9-0.1V342l-4.9-2l-3,1.4h-7l-0.5,0.9l-1.6,0.1l0.4-19.4l-3.8-0.1v-0.5h-0.4
		l-0.2-0.6l-5.9-0.4v-2h-0.4v2h-1.6v0.7h-2.1v0.6h-4l-0.4,21.5l-2-0.4l-0.1-1.6l-2.8-0.2l0.4-21.1h-0.3l-0.6,21.1l-7,0.1l-0.1,1.7
		h-4.2v15.7h-0.8v0.6H262v5.4h-5.9v1.7h-0.5v-19.1l-3.9-12.4h-6.3l-3.3,11.1h-1.8l-3.5,13.2h-5.7l-2.7-3.9l-15.2-0.1l-3.8,5.1
		l-0.3-14.9h-3v-0.5l-0.4,0.1v-0.7h-0.6v1.1l-0.6,0.1l0.1,0.4l-0.6-0.1v-0.4h-0.6v0.9h-3.9v-0.9l-0.3,0.3l-0.4,0.4h-0.4v0.6h-1.5
		l-0.4,19.3l-0.5,0.1l-0.2,4.1h-0.4l-0.2-18.8l-1.1-0.1v0.6h-4.9v-0.6h-0.6l-0.6-0.6h-3.2l-0.3-35.3h-0.6v-0.4l-6.4-0.3v0.5h-0.6
		l-0.1-0.4h-0.5l-0.1,0.6h-0.3v-0.6h-0.6l0.1,0.5h-4.9l-0.1,0.6l-0.6-0.1l-0.1,29.1l-4.2-0.1l-0.1,0.6h-2v1.7h-2.2l-0.2,29.9h-0.6
		l0.1-34.8h-0.6l0.1-4.5h-0.3l-0.2,4.5h-8.7l-0.2,24.1h-0.5V367h-0.5v-0.8h-9.2v1.8h-2.6v5.1h-0.5v0.9l-1.7-1.2h-3.9v1.1h-0.8v-1.2
		l-2.3,0.1l-1.8,1.4v1h-1.2v-2.9H123l-1.3,1.3H121l-0.4-0.4h-2.6l-1.7-0.5h-4.6v0.6h-3.1v-1.2l-2.1-0.3v-0.9h-0.7v1.3h-4.9v0.5h-0.6
		v0.6l-1.4-1.4h-0.9V369H97v3.1h-3.4v-0.7c-0.4,0.3-0.7,0.5-1.1,0.6v4.6l-0.7-0.1v1.7l-0.9,0.2v0.9h-4.3v-0.7l-7.4-1.6h-8.4v2.9
		h-0.6v4.2h-0.3c0.2,3.9,0.5,7.9,0.7,11.8h422.4v-19.3C492.5,376.7,492,376.7,491.7,376.6z"/>
</g>
</svg>
